<svg width="16" height="16" viewBox="0 0 16 16" fill="none" xmlns="http://www.w3.org/2000/svg">
<g id="Group">
<path id="Vector" d="M7.99976 4.43603C8.53954 4.85972 8.97586 5.40066 9.2757 6.01789C9.57554 6.63513 9.73104 7.31248 9.73042 7.99869C9.73083 8.68468 9.57524 9.36177 9.27541 9.97876C8.97558 10.5957 8.53936 11.1365 7.99976 11.56C7.46007 11.1364 7.0238 10.5956 6.72396 9.97846C6.42413 9.36135 6.26858 8.68412 6.26909 7.99803C6.26858 7.31193 6.42413 6.63471 6.72396 6.01759C7.0238 5.40048 7.46007 4.85965 7.99976 4.43603ZM7.41976 4.04803C6.84839 4.53574 6.38974 5.14171 6.07551 5.82404C5.76128 6.50638 5.59895 7.24881 5.59976 8.00003C5.59898 8.75091 5.76119 9.49302 6.07518 10.1751C6.38918 10.8572 6.84747 11.463 7.41843 11.9507C6.72868 12.3379 5.94961 12.5378 5.15865 12.5306C4.36769 12.5234 3.59239 12.3093 2.90983 11.9096C2.22726 11.5099 1.66119 10.9385 1.26789 10.2522C0.874597 9.56591 0.667769 8.78864 0.667969 7.99765C0.668169 7.20666 0.87539 6.42949 1.26903 5.74341C1.66268 5.05732 2.22903 4.48621 2.91181 4.08685C3.59458 3.68749 4.36998 3.47378 5.16094 3.46696C5.95191 3.46015 6.73088 3.66048 7.42042 4.04803H7.41976ZM8.58109 11.9507C9.15204 11.463 9.61034 10.8572 9.92433 10.1751C10.2383 9.49302 10.4005 8.75091 10.3998 8.00003C10.4006 7.24881 10.2382 6.50638 9.92401 5.82404C9.60977 5.14171 9.15112 4.53574 8.57976 4.04803C9.26931 3.66048 10.0483 3.46015 10.8392 3.46696C11.6302 3.47378 12.4056 3.68749 13.0884 4.08685C13.7712 4.48621 14.3375 5.05732 14.7311 5.74341C15.1248 6.42949 15.332 7.20666 15.3322 7.99765C15.3324 8.78864 15.1256 9.56591 14.7323 10.2522C14.339 10.9385 13.7729 11.5099 13.0904 11.9096C12.4078 12.3093 11.6325 12.5234 10.8415 12.5306C10.0506 12.5378 9.2715 12.3379 8.58176 11.9507H8.58109Z" fill="#09121F"/>
</g>
</svg>
