<svg width="17" height="18" viewBox="0 0 17 18" fill="none" xmlns="http://www.w3.org/2000/svg">
<path d="M3.99148 9.40805C2.84403 7.63864 2.12761 5.62475 1.89981 3.52819C1.88278 3.33978 1.90517 3.14989 1.96555 2.97061C2.02594 2.79133 2.12299 2.62658 2.25053 2.48687C2.37807 2.34715 2.53331 2.23552 2.70635 2.15908C2.8794 2.08264 3.06647 2.04308 3.25565 2.0429H5.29963C5.63028 2.03965 5.95083 2.15673 6.20154 2.37234C6.45225 2.58795 6.616 2.88737 6.66228 3.21478C6.74855 3.8689 6.90855 4.51116 7.13921 5.12931C7.23088 5.37317 7.25072 5.6382 7.19638 5.893C7.14204 6.14779 7.0158 6.38167 6.83261 6.56691L5.96733 7.4322M16.1259 1.36157L1.13672 16.3508M7.73197 9.74871C8.42341 10.4408 9.20487 11.0366 10.0553 11.5202L10.9206 10.6549C11.1058 10.4717 11.3397 10.3454 11.5945 10.2911C11.8493 10.2368 12.1143 10.2566 12.3582 10.3483C12.9763 10.5789 13.6186 10.7389 14.2727 10.8252C14.6001 10.8715 14.8995 11.0352 15.1151 11.2859C15.3308 11.5367 15.4478 11.8572 15.4446 12.1879V14.2318C15.4454 14.4216 15.4065 14.6094 15.3305 14.7833C15.2545 14.9571 15.143 15.1132 15.0031 15.2415C14.8633 15.3698 14.6982 15.4674 14.5185 15.5282C14.3387 15.589 14.1483 15.6116 13.9593 15.5945C11.8627 15.3667 9.84885 14.6503 8.07944 13.5028C7.25863 12.9816 6.49776 12.3716 5.81062 11.6837L7.73197 9.74871Z" stroke="white" stroke-width="1.36538" stroke-linecap="round" stroke-linejoin="round"/>
</svg>
