<svg width="52" height="52" viewBox="0 0 52 52" fill="none" xmlns="http://www.w3.org/2000/svg">
<rect width="52" height="52" rx="26" fill="#E4E7EC"/>
<path d="M21.5 18.21L26 20.81L30.5 18.21M21.5 33.79V28.6L17 26M35 26L30.5 28.6V33.79M17.27 20.96L26 26.01L34.73 20.96M26 36.08V26M35 30V22C34.9996 21.6493 34.9071 21.3048 34.7315 21.0012C34.556 20.6975 34.3037 20.4454 34 20.27L27 16.27C26.696 16.0945 26.3511 16.0021 26 16.0021C25.6489 16.0021 25.304 16.0945 25 16.27L18 20.27C17.6963 20.4454 17.444 20.6975 17.2685 21.0012C17.0929 21.3048 17.0004 21.6493 17 22V30C17.0004 30.3508 17.0929 30.6952 17.2685 30.9989C17.444 31.3025 17.6963 31.5547 18 31.73L25 35.73C25.304 35.9056 25.6489 35.998 26 35.998C26.3511 35.998 26.696 35.9056 27 35.73L34 31.73C34.3037 31.5547 34.556 31.3025 34.7315 30.9989C34.9071 30.6952 34.9996 30.3508 35 30Z" stroke="#101828" stroke-width="2" stroke-linecap="round" stroke-linejoin="round"/>
</svg>
