<svg width="24" height="24" viewBox="0 0 24 24" fill="none" xmlns="http://www.w3.org/2000/svg">
<g clip-path="url(#clip0_10442_10319)">
<path d="M12 24C18.6274 24 24 18.6274 24 12C24 5.37258 18.6274 0 12 0C5.37258 0 0 5.37258 0 12C0 18.6274 5.37258 24 12 24Z" fill="#F0F0F0"/>
<path d="M11.9994 0C7.74456 0 4.00721 2.21452 1.87646 5.5537L18.1495 22.3054C21.6531 20.21 23.9994 16.3792 23.9994 12C23.9994 5.37262 18.6268 0 11.9994 0Z" fill="#FFDA44"/>
<path d="M24.0001 12.0005C24.0001 8.887 22.8142 6.05069 20.8696 3.91797V20.0831C22.8142 17.9504 24.0001 15.1141 24.0001 12.0005Z" fill="#0052B4"/>
<path d="M14.9906 22.5892L16.2475 22.5884L16.6353 21.3926L17.0245 22.5879L17.6549 22.5875C18.0415 22.3806 18.4154 22.1531 18.7752 21.9065L2.09528 5.22656C1.82041 5.62763 1.56972 6.04641 1.3443 6.48047L1.49252 6.93572L2.74947 6.93492L1.73303 7.67438L2.12219 8.86964L1.10482 8.13145L0.49802 8.57283C0.174535 9.6592 0.000488281 10.8099 0.000488281 12.0014C0.000488281 18.6287 5.37311 24.0014 12.0005 24.0014C13.4017 24.0014 14.7466 23.7608 15.9966 23.3192L14.9906 22.5892ZM2.677 11.4796L3.06466 10.284L2.04738 9.54567L3.30433 9.54488L3.69203 8.34914L4.08119 9.54441L5.33814 9.54361L4.32166 10.2831L4.71082 11.4783L3.69344 10.7401L2.677 11.4796ZM5.26568 14.0883L5.65333 12.8926L4.63605 12.1544L5.893 12.1536L6.28071 10.9578L6.66986 12.1531L7.92682 12.1523L6.91038 12.8918L7.29953 14.087L6.28216 13.3488L5.26568 14.0883ZM7.8543 16.697L8.24196 15.5013L7.22468 14.763L8.48163 14.7623L8.86933 13.5665L9.25849 14.7618L10.5154 14.761L9.499 15.5004L9.88816 16.6957L8.87078 15.9574L7.8543 16.697ZM11.4594 18.5663L10.4429 19.3057L10.8306 18.11L9.8133 17.3717L11.0703 17.3709L11.458 16.1752L11.8472 17.3705L13.1041 17.3697L12.0877 18.1091L12.4768 19.3044L11.4594 18.5663ZM13.0316 21.9144L13.4193 20.7187L12.402 19.9804L13.6589 19.9796L14.0466 18.7839L14.4358 19.9792L15.6927 19.9784L14.6763 20.7178L15.0655 21.9131L14.0481 21.1748L13.0316 21.9144Z" fill="#0052B4"/>
</g>
<defs>
<clipPath id="clip0_10442_10319">
<rect width="24" height="24" fill="white"/>
</clipPath>
</defs>
</svg>
