<svg width="24" height="24" viewBox="0 0 24 24" fill="none" xmlns="http://www.w3.org/2000/svg">
<g clip-path="url(#clip0_10442_10286)">
<path d="M16.1735 0.746391C14.8735 0.264047 13.4675 0 11.9996 0C10.5318 0 9.1257 0.264047 7.82571 0.746391L6.78223 12L7.82571 23.2536C9.1257 23.736 10.5318 24 11.9996 24C13.4675 24 14.8735 23.736 16.1735 23.2536L17.217 12L16.1735 0.746391Z" fill="#FFDA44"/>
<path d="M23.9999 11.9997C23.9999 6.84012 20.7434 2.44156 16.1738 0.746094V23.2534C20.7434 21.5577 23.9999 17.1593 23.9999 11.9997Z" fill="#D80027"/>
<path d="M-0.000488281 11.9997C-0.000488281 17.1593 3.25601 21.5578 7.82562 23.2533V0.746094C3.25601 2.44156 -0.000488281 6.84013 -0.000488281 11.9997Z" fill="black"/>
</g>
<defs>
<clipPath id="clip0_10442_10286">
<rect width="24" height="24" fill="white"/>
</clipPath>
</defs>
</svg>
