<svg width="24" height="24" viewBox="0 0 24 24" fill="none" xmlns="http://www.w3.org/2000/svg">
<g clip-path="url(#clip0_10346_69011)">
<path d="M12 24C18.6274 24 24 18.6274 24 12C24 5.37258 18.6274 0 12 0C5.37258 0 0 5.37258 0 12C0 18.6274 5.37258 24 12 24Z" fill="#FF4500"/>
<path d="M20.0002 11.9983C20.0002 11.0299 19.2143 10.2439 18.2459 10.2439C17.7687 10.2439 17.3476 10.4264 17.0388 10.7352C15.8459 9.87903 14.1897 9.31763 12.3652 9.24745L13.1652 5.50008L15.7617 6.04745C15.7897 6.7071 16.3371 7.24043 17.0108 7.24043C17.6985 7.24043 18.2599 6.67903 18.2599 5.99131C18.2599 5.30359 17.6985 4.74219 17.0108 4.74219C16.5195 4.74219 16.0985 5.02289 15.902 5.44394L12.9967 4.8264C12.9125 4.81236 12.8283 4.8264 12.7581 4.8685C12.688 4.91061 12.6459 4.98078 12.6178 5.06499L11.7336 9.24745C9.86692 9.30359 8.19674 9.85096 6.98972 10.7352C6.68095 10.4404 6.24586 10.2439 5.78271 10.2439C4.81429 10.2439 4.02832 11.0299 4.02832 11.9983C4.02832 12.7141 4.44937 13.3176 5.06692 13.5983C5.03885 13.7667 5.02481 13.9492 5.02481 14.1317C5.02481 16.8264 8.15464 19.0018 12.0283 19.0018C15.902 19.0018 19.0318 16.8264 19.0318 14.1317C19.0318 13.9492 19.0178 13.7808 18.9897 13.6124C19.5652 13.3317 20.0002 12.7141 20.0002 11.9983ZM8.00025 13.2475C8.00025 12.5597 8.56165 11.9983 9.24937 11.9983C9.93709 11.9983 10.4985 12.5597 10.4985 13.2475C10.4985 13.9352 9.93709 14.4966 9.24937 14.4966C8.56165 14.4966 8.00025 13.9352 8.00025 13.2475ZM14.9757 16.5457C14.1195 17.4018 12.4915 17.458 12.0143 17.458C11.5371 17.458 9.89499 17.3878 9.05288 16.5457C8.92657 16.4194 8.92657 16.2089 9.05288 16.0825C9.1792 15.9562 9.38972 15.9562 9.51604 16.0825C10.0494 16.6159 11.2003 16.8124 12.0283 16.8124C12.8564 16.8124 13.9932 16.6159 14.5406 16.0825C14.6669 15.9562 14.8774 15.9562 15.0038 16.0825C15.102 16.2229 15.102 16.4194 14.9757 16.5457ZM14.7511 14.4966C14.0634 14.4966 13.502 13.9352 13.502 13.2475C13.502 12.5597 14.0634 11.9983 14.7511 11.9983C15.4388 11.9983 16.0002 12.5597 16.0002 13.2475C16.0002 13.9352 15.4388 14.4966 14.7511 14.4966Z" fill="white"/>
</g>
<defs>
<clipPath id="clip0_10346_69011">
<rect width="24" height="24" fill="white"/>
</clipPath>
</defs>
</svg>
