<svg width="24" height="24" viewBox="0 0 24 24" fill="none" xmlns="http://www.w3.org/2000/svg">
<g clip-path="url(#clip0_10442_10296)">
<path d="M12 24C18.6274 24 24 18.6274 24 12C24 5.37258 18.6274 0 12 0C5.37258 0 0 5.37258 0 12C0 18.6274 5.37258 24 12 24Z" fill="#F0F0F0"/>
<path d="M2.48081 4.69531C1.5382 5.9217 0.827433 7.33522 0.413574 8.8708H6.65629L2.48081 4.69531Z" fill="#0052B4"/>
<path d="M23.5874 8.87075C23.1735 7.33522 22.4627 5.9217 21.5201 4.69531L17.3447 8.87075H23.5874Z" fill="#0052B4"/>
<path d="M0.413574 15.1328C0.827481 16.6683 1.53825 18.0819 2.48081 19.3082L6.65616 15.1328H0.413574Z" fill="#0052B4"/>
<path d="M19.3058 2.48135C18.0794 1.53874 16.666 0.827969 15.1304 0.414062V6.65674L19.3058 2.48135Z" fill="#0052B4"/>
<path d="M4.69385 21.5191C5.92024 22.4617 7.33376 23.1725 8.86929 23.5864V17.3438L4.69385 21.5191Z" fill="#0052B4"/>
<path d="M8.86924 0.414062C7.33371 0.827968 5.92019 1.53873 4.69385 2.4813L8.86924 6.65668V0.414062Z" fill="#0052B4"/>
<path d="M15.1304 23.5864C16.6659 23.1725 18.0794 22.4617 19.3058 21.5191L15.1304 17.3438V23.5864Z" fill="#0052B4"/>
<path d="M17.3447 15.1328L21.5201 19.3082C22.4627 18.0819 23.1735 16.6683 23.5874 15.1328H17.3447Z" fill="#0052B4"/>
<path d="M23.8984 10.4348H13.5653H13.5653V0.101578C13.0529 0.034875 12.5305 0 12 0C11.4694 0 10.9471 0.034875 10.4348 0.101578V10.4347V10.4347H0.101578C0.034875 10.9471 0 11.4695 0 12C0 12.5306 0.034875 13.0529 0.101578 13.5652H10.4347H10.4347V23.8984C10.9471 23.9651 11.4694 24 12 24C12.5305 24 13.0529 23.9652 13.5652 23.8984V13.5653V13.5653H23.8984C23.9651 13.0529 24 12.5306 24 12C24 11.4695 23.9651 10.9471 23.8984 10.4348Z" fill="#D80027"/>
<path d="M15.1304 15.1329L20.4852 20.4877C20.7315 20.2415 20.9664 19.9841 21.1906 19.7173L16.6061 15.1328H15.1304V15.1329Z" fill="#D80027"/>
<path d="M8.86951 15.1328H8.86941L3.51465 20.4876C3.76084 20.7339 4.01823 20.9688 4.28504 21.193L8.86951 16.6084V15.1328Z" fill="#D80027"/>
<path d="M8.86927 8.87058V8.87048L3.51446 3.51562C3.26818 3.76181 3.03324 4.0192 2.80908 4.28602L7.3936 8.87053H8.86927V8.87058Z" fill="#D80027"/>
<path d="M15.1304 8.86883L20.4852 3.51392C20.239 3.26764 19.9817 3.0327 19.7148 2.80859L15.1304 7.39311V8.86883Z" fill="#D80027"/>
</g>
<defs>
<clipPath id="clip0_10442_10296">
<rect width="24" height="24" fill="white"/>
</clipPath>
</defs>
</svg>
