<svg width="361" height="360" viewBox="0 0 361 360" fill="none" xmlns="http://www.w3.org/2000/svg">
<rect x="1.24518" y="0.651428" width="358.697" height="358.697" rx="43.3486" fill="#101828"/>
<path d="M83.3718 209.582C98.7232 209.582 111.168 197.137 111.168 181.786C111.168 166.435 98.7232 153.991 83.3718 153.991C68.0205 153.991 55.5757 166.435 55.5757 181.786C55.5757 197.137 68.0205 209.582 83.3718 209.582Z" fill="#7CFFA6"/>
<path d="M85.864 68.2802L238.317 291.719H305.612L234.993 177.946L303.119 68.2802H235.824L194.699 133.587L153.159 68.2802H85.864Z" fill="white"/>
<path d="M176.612 249.83L141.536 198.827L83.7111 291.532H150.563L176.612 249.83Z" fill="#7CFFA6" stroke="#7CFFA6" stroke-width="0.376377"/>
<rect x="1.24518" y="0.651428" width="358.697" height="358.697" rx="43.3486" stroke="#CDC9C2" stroke-width="1.30286"/>
</svg>
