<svg width="24" height="25" viewBox="0 0 24 25" fill="none" xmlns="http://www.w3.org/2000/svg">
<g id="Social icon">
<path id="Vector" d="M7.55016 22.2507C16.6045 22.2507 21.5583 14.7474 21.5583 8.24259C21.5583 8.03166 21.5536 7.81603 21.5442 7.60509C22.5079 6.90819 23.3395 6.04499 24 5.05603C23.1025 5.45533 22.1496 5.71611 21.1739 5.82947C22.2013 5.21364 22.9705 4.2462 23.3391 3.1065C22.3726 3.67929 21.3156 4.08334 20.2134 4.30134C19.4708 3.51229 18.489 2.98985 17.4197 2.81478C16.3504 2.63972 15.2532 2.82178 14.2977 3.33283C13.3423 3.84387 12.5818 4.65544 12.1338 5.64204C11.6859 6.62865 11.5754 7.73535 11.8195 8.79103C9.86249 8.69282 7.94794 8.18444 6.19998 7.29883C4.45203 6.41323 2.90969 5.17017 1.67297 3.65025C1.0444 4.73398 0.852057 6.01638 1.13503 7.23682C1.418 8.45727 2.15506 9.52418 3.19641 10.2207C2.41463 10.1959 1.64998 9.98541 0.965625 9.60666V9.66759C0.964925 10.8049 1.3581 11.9073 2.07831 12.7875C2.79852 13.6677 3.80132 14.2713 4.91625 14.4957C4.19206 14.6939 3.43198 14.7227 2.69484 14.5801C3.00945 15.5582 3.62157 16.4136 4.44577 17.0271C5.26997 17.6405 6.26512 17.9813 7.29234 18.002C5.54842 19.3718 3.39417 20.1149 1.17656 20.1113C0.783287 20.1107 0.390399 20.0866 0 20.0392C2.25286 21.4845 4.87353 22.2521 7.55016 22.2507Z" fill="#98A2B3"/>
</g>
</svg>
