<svg width="25" height="24" viewBox="0 0 25 24" fill="none" xmlns="http://www.w3.org/2000/svg">
<path d="M12.6666 1.50284C12.6666 1.50284 18.8558 1.22609 22.1371 7.42489H12.14C12.14 7.42489 10.2534 7.3643 8.64174 9.64493C8.17878 10.6022 7.68116 11.5882 8.23959 13.5315C7.43514 12.1735 3.96875 6.15923 3.96875 6.15923C3.96875 6.15923 6.41375 1.7479 12.6666 1.50284H12.6666Z" fill="#EF3F36"/>
<path d="M21.8168 17.2391C21.8168 17.2391 18.9609 22.72 11.9355 22.449C12.8036 20.9526 16.9355 13.8225 16.9355 13.8225C16.9355 13.8225 17.9337 12.2253 16.7561 9.69386C16.1571 8.81449 15.5465 7.89476 13.579 7.40456C15.1618 7.39023 22.1206 7.40456 22.1206 7.40456C22.1206 7.40456 24.7276 11.7207 21.8168 17.2391Z" fill="#FCD900"/>
<path d="M3.56074 17.2824C3.56074 17.2824 0.224516 12.0782 3.97447 6.15039C4.83965 7.64679 8.97154 14.7769 8.97154 14.7769C8.97154 14.7769 9.86277 16.4376 12.6492 16.6855C13.7112 16.6077 14.8165 16.5414 16.2286 15.0911C15.4501 16.4636 11.9576 22.4606 11.9576 22.4606C11.9576 22.4606 6.89976 22.5528 3.56066 17.2824H3.56074Z" fill="#61BC5B"/>
<path d="M11.9316 22.501L13.3379 16.6539C13.3379 16.6539 14.883 16.5328 16.1794 15.1172C15.3749 16.5271 11.9316 22.501 11.9316 22.501Z" fill="#5AB055"/>
<path d="M7.95703 12.0667C7.95703 9.48924 10.0549 7.39893 12.6416 7.39893C15.2283 7.39893 17.3262 9.48924 17.3262 12.0667C17.3262 14.6443 15.2283 16.7345 12.6416 16.7345C10.0549 16.7317 7.95703 14.6443 7.95703 12.0667Z" fill="white"/>
<path d="M8.74023 12.0667C8.74023 9.92164 10.4851 8.18018 12.6408 8.18018C14.7935 8.18018 16.5412 9.91878 16.5412 12.0667C16.5412 14.2118 14.7964 15.9533 12.6408 15.9533C10.4879 15.9533 8.74023 14.2118 8.74023 12.0667Z" fill="url(#paint0_linear_5335_31371)"/>
<path d="M22.1177 7.40767L16.3278 9.1001C16.3278 9.1001 15.454 7.82279 13.5762 7.40767C15.2052 7.39899 22.1177 7.40767 22.1177 7.40767Z" fill="#EACA05"/>
<path d="M8.12677 13.3182C7.3136 11.914 3.96875 6.15918 3.96875 6.15918L8.25693 10.3859C8.25693 10.3859 7.81707 11.2884 7.98207 12.58L8.12669 13.3182H8.12677Z" fill="#DF3A32"/>
<defs>
<linearGradient id="paint0_linear_5335_31371" x1="12.6406" y1="8.23505" x2="12.6406" y2="15.7193" gradientUnits="userSpaceOnUse">
<stop stop-color="#86BBE5"/>
<stop offset="1" stop-color="#1072BA"/>
</linearGradient>
</defs>
</svg>
