<svg width="127" height="118" viewBox="0 0 127 118" fill="none" xmlns="http://www.w3.org/2000/svg">
<g clip-path="url(#clip0_1449_36120)">
<path d="M43.5127 118H85.9483C85.9483 118 133.651 106.201 125.795 59.0001C117.937 11.7995 98.0472 -1.59734 69.1119 5.34629C40.1757 12.2899 45.8215 56.1522 26.1795 60.6293C6.53656 65.1073 -0.198175 75.4883 0.363129 93.1643C0.924433 110.84 12.0206 118 43.5127 118Z" fill="#F5F6FA"/>
<path d="M77.2085 0H16.7856V98.6521H77.2085V0Z" fill="#D9DBDE"/>
<path d="M96.559 19.3481H36.1362V118H96.559V19.3481Z" fill="#EBECF0"/>
<path d="M36.1362 19.3479L77.2086 0V19.3479H36.1362Z" fill="#AFB0B3"/>
<path opacity="0.3" d="M96.559 48.543V118H65.076C59.7908 110.761 56.6719 101.841 56.6719 92.1918C56.6719 69.3167 74.1994 50.5372 96.559 48.543Z" fill="#AFB0B3"/>
<path d="M75.313 31.5824H44.5294C43.8101 31.5824 43.2261 30.9994 43.2261 30.2793C43.2261 29.56 43.8092 28.9761 44.5294 28.9761H75.313C76.0324 28.9761 76.6164 29.5591 76.6164 30.2793C76.6164 30.9985 76.0333 31.5824 75.313 31.5824Z" fill="white"/>
<path d="M63.3667 38.1308H44.5294C43.8101 38.1308 43.2261 37.5477 43.2261 36.8276C43.2261 36.1083 43.8092 35.5244 44.5294 35.5244H63.3667C64.0861 35.5244 64.6701 36.1074 64.6701 36.8276C64.6701 37.5468 64.087 38.1308 63.3667 38.1308Z" fill="white"/>
<path d="M86.9725 109.254H45.723C44.5025 109.254 43.5132 110.244 43.5132 111.464C43.5132 112.684 44.5025 113.673 45.723 113.673H86.9725C88.1929 113.673 89.1822 112.684 89.1822 111.464C89.1822 110.244 88.1929 109.254 86.9725 109.254Z" fill="#AFB0B3"/>
<path d="M121.073 64.0067C121.073 67.2479 120.436 70.3482 119.279 73.1871C116.002 81.2305 108.563 87.1806 99.674 88.3212C98.6522 88.4511 97.6132 88.5183 96.5578 88.5183C89.8167 88.5183 83.6868 85.7603 79.2446 81.3177C74.8004 76.8759 72.043 70.7469 72.043 64.0067C72.043 57.2665 74.8014 51.1375 79.2446 46.6958C83.6868 42.2522 89.8167 39.4951 96.5578 39.4951C103.299 39.4951 109.429 42.2531 113.871 46.6958C118.315 51.1375 121.073 57.2665 121.073 64.0067H121.073Z" fill="#AFB0B3"/>
<path opacity="0.1" d="M119.28 73.1869C116.003 81.2302 108.564 87.1804 99.6751 88.321C99.5416 88.2202 99.4271 88.0958 99.3354 87.955C99.1628 87.8415 99.0157 87.6953 98.9022 87.5218C98.7296 87.4083 98.5825 87.2621 98.4689 87.0887C98.2964 86.9751 98.1474 86.8289 98.0357 86.6546C97.8631 86.5429 97.7142 86.3948 97.6024 86.2214C97.4299 86.1097 97.2809 85.9617 97.1683 85.7882C96.9957 85.6747 96.8486 85.5285 96.7351 85.355C96.5625 85.2415 96.4154 85.0953 96.3018 84.9218C96.1293 84.8083 95.9821 84.6621 95.8686 84.4886C95.696 84.3751 95.5471 84.2289 95.4353 84.0555C95.2628 83.942 95.1138 83.7939 95.0021 83.6214C94.8295 83.5097 94.6806 83.3617 94.568 83.1882C94.3954 83.0765 94.2483 82.9285 94.1347 82.755C93.9622 82.6415 93.815 82.4953 93.7015 82.3218C93.5289 82.2083 93.3818 82.0621 93.2682 81.8886C93.0957 81.7751 92.9467 81.6289 92.835 81.4555C92.6624 81.3419 92.5135 81.1939 92.4018 81.0214C92.2292 80.9097 92.0802 80.7616 91.9676 80.5882C91.795 80.4765 91.6479 80.3285 91.5344 80.155C91.3618 80.0415 91.2147 79.8953 91.1011 79.7218C90.9286 79.6083 90.7814 79.4621 90.6679 79.2886C90.4953 79.1751 90.3464 79.0289 90.2347 78.8555C90.0621 78.7419 89.9131 78.5939 89.8014 78.4214C89.6288 78.3097 89.4799 78.1616 89.3673 77.9882C89.1947 77.8765 89.0476 77.7285 88.934 77.555C88.7615 77.4415 88.6143 77.2953 88.5008 77.1218C88.3282 77.0083 88.1811 76.8621 88.0675 76.6886C87.6625 76.4244 87.3945 75.9685 87.3945 75.4499C87.3945 74.6335 88.0566 73.9706 88.8741 73.9706H99.7378L99.4062 73.6391L98.973 73.2059L98.5398 72.7718L98.1056 72.3387L97.2401 71.4732L96.3745 70.6077L95.5089 69.7405H95.5071L87.8278 62.0622C87.251 61.4837 87.251 60.5483 87.8278 59.9716C88.4063 59.3931 89.3418 59.3931 89.9186 59.9716L90.3518 60.4048L91.2192 61.2702L92.0848 62.1375L95.0739 65.1262V52.5503C95.0739 51.7339 95.736 51.0728 96.5534 51.0728C97.072 51.0728 97.528 51.3407 97.7923 51.7439C97.9648 51.8574 98.112 52.0054 98.2255 52.178C98.3981 52.2897 98.547 52.4377 98.6588 52.6111C98.8313 52.7228 98.9803 52.8709 99.092 53.0443C99.2646 53.1578 99.4135 53.3041 99.5261 53.4775C99.6987 53.591 99.8458 53.7372 99.9594 53.9107C100.132 54.0242 100.279 54.1704 100.393 54.3439C100.565 54.4574 100.712 54.6054 100.826 54.778C100.998 54.8897 101.147 55.0377 101.259 55.2111C101.432 55.3228 101.581 55.4709 101.692 55.6443C101.865 55.7578 102.014 55.9041 102.126 56.0775C102.299 56.191 102.446 56.3372 102.56 56.5107C102.732 56.6242 102.879 56.7704 102.993 56.9439C103.166 57.0574 103.313 57.2054 103.426 57.378C103.599 57.4897 103.748 57.6377 103.859 57.8111C104.032 57.9229 104.181 58.0709 104.293 58.2443C104.465 58.3578 104.614 58.5041 104.727 58.6775C104.899 58.791 105.047 58.9372 105.16 59.1107C105.333 59.2242 105.48 59.3704 105.593 59.5439C105.766 59.6574 105.913 59.8054 106.027 59.978C106.199 60.0897 106.348 60.2377 106.46 60.4111C106.632 60.5228 106.781 60.6709 106.893 60.8443C107.066 60.9578 107.215 61.1041 107.327 61.2775C107.5 61.391 107.647 61.5372 107.76 61.7107C107.933 61.8242 108.08 61.9704 108.194 62.1439C108.366 62.2574 108.513 62.4054 108.627 62.578C108.799 62.6897 108.948 62.8377 109.06 63.0112C109.233 63.1229 109.382 63.2709 109.493 63.4443C109.666 63.5579 109.815 63.7041 109.928 63.8775C110.1 63.991 110.247 64.1372 110.361 64.3107C110.533 64.4242 110.68 64.5704 110.794 64.7439C110.967 64.8574 111.114 65.0054 111.227 65.178C111.4 65.2897 111.549 65.4377 111.66 65.6112C111.833 65.7229 111.982 65.8709 112.094 66.0443C112.266 66.1579 112.415 66.3041 112.528 66.4775C112.7 66.591 112.848 66.7372 112.961 66.9107C113.134 67.0242 113.281 67.1704 113.394 67.3439C113.567 67.4574 113.714 67.6036 113.828 67.778C114 67.8897 114.147 68.0377 114.261 68.2112C114.433 68.3229 114.582 68.4709 114.694 68.6443C114.867 68.756 115.016 68.9041 115.127 69.0775C115.3 69.191 115.449 69.3373 115.561 69.5107C115.734 69.6242 115.881 69.7704 115.995 69.9439C116.167 70.0574 116.314 70.2036 116.428 70.3771C116.6 70.4906 116.748 70.6386 116.861 70.8112C117.034 70.9229 117.183 71.0709 117.294 71.2443C117.467 71.356 117.616 71.5041 117.728 71.6775C117.9 71.791 118.049 71.9373 118.162 72.1107C118.334 72.2242 118.481 72.3704 118.595 72.5439C118.768 72.6574 118.915 72.8036 119.028 72.9771C119.122 73.0379 119.209 73.1106 119.285 73.1914L119.28 73.1869Z" fill="#282829"/>
<path d="M96.5588 70.1805C96.1737 70.1805 95.7958 70.0306 95.5125 69.7473L87.8331 62.069C87.2555 61.4914 87.2555 60.5551 87.8331 59.9784C88.4108 59.4009 89.3472 59.4009 89.9239 59.9784L95.0792 65.133V52.558C95.0792 51.7416 95.7413 51.0796 96.5579 51.0796C97.3744 51.0796 98.0365 51.7416 98.0365 52.558V68.7029C98.0365 69.3014 97.6759 69.8399 97.1237 70.0688C96.9411 70.1442 96.7486 70.1814 96.5579 70.1814L96.5588 70.1805Z" fill="white"/>
<path d="M96.5587 70.1804C96.368 70.1804 96.1764 70.1432 95.9929 70.0678C95.4407 69.839 95.0801 69.2995 95.0801 68.702V52.5571C95.0801 51.7406 95.7422 51.0786 96.5587 51.0786C97.3753 51.0786 98.0374 51.7406 98.0374 52.5571V65.1321L103.193 59.9775C103.77 59.3999 104.707 59.3999 105.283 59.9775C105.861 60.555 105.861 61.4913 105.283 62.068L97.6041 69.7463C97.3217 70.0288 96.9429 70.1795 96.5578 70.1795L96.5587 70.1804Z" fill="white"/>
<path d="M104.238 76.9349H88.8795C88.063 76.9349 87.4009 76.2729 87.4009 75.4565C87.4009 74.6401 88.063 73.978 88.8795 73.978H104.238C105.055 73.978 105.717 74.6401 105.717 75.4565C105.717 76.2729 105.055 76.9349 104.238 76.9349Z" fill="white"/>
</g>
<defs>
<clipPath id="clip0_1449_36120">
<rect width="126.337" height="118" fill="white" transform="translate(0.331543)"/>
</clipPath>
</defs>
</svg>
