<svg width="29" height="29" viewBox="0 0 29 29" fill="none" xmlns="http://www.w3.org/2000/svg">
<path d="M4.38574 21.2836V14.3631C4.38574 11.61 5.47942 8.96961 7.42617 7.02285C9.37293 5.0761 12.0133 3.98242 14.7664 3.98242C17.5196 3.98242 20.1599 5.0761 22.1067 7.02285C24.0534 8.96961 25.1471 11.61 25.1471 14.3631V21.2836M25.1471 22.437C25.1471 23.0488 24.9041 23.6355 24.4715 24.0681C24.0388 24.5007 23.4521 24.7438 22.8403 24.7438H21.6869C21.0751 24.7438 20.4883 24.5007 20.0557 24.0681C19.6231 23.6355 19.3801 23.0488 19.3801 22.437V18.9767C19.3801 18.3649 19.6231 17.7782 20.0557 17.3456C20.4883 16.913 21.0751 16.6699 21.6869 16.6699H25.1471V22.437ZM4.38574 22.437C4.38574 23.0488 4.62878 23.6355 5.06139 24.0681C5.49401 24.5007 6.08075 24.7438 6.69256 24.7438H7.84597C8.45778 24.7438 9.04452 24.5007 9.47714 24.0681C9.90975 23.6355 10.1528 23.0488 10.1528 22.437V18.9767C10.1528 18.3649 9.90975 17.7782 9.47714 17.3456C9.04452 16.913 8.45778 16.6699 7.84597 16.6699H4.38574V22.437Z" stroke="#DD2590" stroke-width="2.30682" stroke-linecap="round" stroke-linejoin="round"/>
</svg>
