<svg width="29" height="29" viewBox="0 0 29 29" fill="none" xmlns="http://www.w3.org/2000/svg">
<g clip-path="url(#clip0_6034_33567)">
<path d="M22.4379 1.67578L27.0515 6.28942M27.0515 6.28942L22.4379 10.9031M27.0515 6.28942H17.8243M25.8981 20.0381V23.4983C25.8994 23.8195 25.8336 24.1375 25.7049 24.4318C25.5762 24.7261 25.3875 24.9903 25.1508 25.2075C24.9141 25.4246 24.6346 25.59 24.3303 25.6929C24.026 25.7958 23.7036 25.834 23.3837 25.8051C19.8345 25.4194 16.4252 24.2066 13.4298 22.2641C10.6429 20.4933 8.28018 18.1305 6.50931 15.3437C4.56003 12.3347 3.34694 8.9088 2.96835 5.34362C2.93952 5.02467 2.97743 4.7032 3.07965 4.3997C3.18187 4.0962 3.34617 3.8173 3.56208 3.58078C3.77799 3.34425 4.04079 3.15527 4.33374 3.02587C4.62669 2.89647 4.94338 2.82949 5.26363 2.82919H8.72386C9.28361 2.82368 9.82628 3.0219 10.2507 3.3869C10.6751 3.7519 10.9523 4.25878 11.0307 4.81305C11.1767 5.9204 11.4476 7.00768 11.8381 8.05413C11.9932 8.46697 12.0268 8.91563 11.9348 9.34697C11.8429 9.7783 11.6291 10.1742 11.319 10.4878L9.8542 11.9527C11.4961 14.8403 13.887 17.2312 16.7747 18.8731L18.2395 17.4083C18.5531 17.0982 18.949 16.8845 19.3803 16.7925C19.8117 16.7005 20.2603 16.7341 20.6732 16.8892C21.7196 17.2797 22.8069 17.5506 23.9143 17.6966C24.4745 17.7757 24.9862 18.0579 25.352 18.4896C25.7178 18.9213 25.9122 19.4724 25.8981 20.0381Z" stroke="#039855" stroke-width="2.30682" stroke-linecap="round" stroke-linejoin="round"/>
</g>
<defs>
<clipPath id="clip0_6034_33567">
<rect width="27.6818" height="27.6818" fill="white" transform="translate(0.522461 0.522461)"/>
</clipPath>
</defs>
</svg>
