<svg width="21" height="20" viewBox="0 0 21 20" fill="none" xmlns="http://www.w3.org/2000/svg">
<g clip-path="url(#clip0_5335_31360)">
<path d="M10.666 20C16.1889 20 20.666 15.5228 20.666 10C20.666 4.47715 16.1889 0 10.666 0C5.14317 0 0.666016 4.47715 0.666016 10C0.666016 15.5228 5.14317 20 10.666 20Z" fill="#F0F0F0"/>
<path d="M10.2305 10.0001H20.6652C20.6652 9.09749 20.5449 8.22311 20.3207 7.39136H10.2305V10.0001Z" fill="#D80027"/>
<path d="M10.2305 4.78205H19.1975C18.5854 3.78314 17.8027 2.90021 16.8901 2.17334H10.2305V4.78205Z" fill="#D80027"/>
<path d="M10.6643 20.0001C13.0178 20.0001 15.1809 19.1866 16.8891 17.8262H4.43945C6.14766 19.1866 8.31082 20.0001 10.6643 20.0001Z" fill="#D80027"/>
<path d="M2.13301 15.2166H19.1975C19.689 14.4147 20.0701 13.5381 20.3208 12.6079H1.00977C1.26043 13.5381 1.64156 14.4147 2.13301 15.2166Z" fill="#D80027"/>
<path d="M5.2982 1.56164H6.20949L5.36184 2.17746L5.68563 3.17391L4.83801 2.55809L3.99039 3.17391L4.27008 2.31309C3.52375 2.93477 2.86961 3.66313 2.33055 4.47469H2.62254L2.08297 4.86668C1.99891 5.00691 1.91828 5.14937 1.84102 5.29395L2.09867 6.08695L1.61797 5.7377C1.49848 5.99086 1.38918 6.24973 1.29094 6.51398L1.5748 7.38773H2.62254L1.77488 8.00356L2.09867 9L1.25105 8.38418L0.74332 8.75309C0.6925 9.1616 0.666016 9.57769 0.666016 10H10.666C10.666 4.47719 10.666 3.82609 10.666 0C8.69055 0 6.84902 0.573047 5.2982 1.56164ZM5.68563 9L4.83801 8.38418L3.99039 9L4.31418 8.00356L3.46652 7.38773H4.51426L4.83801 6.39129L5.16176 7.38773H6.20949L5.36184 8.00356L5.68563 9ZM5.36184 5.09051L5.68563 6.08695L4.83801 5.47113L3.99039 6.08695L4.31418 5.09051L3.46652 4.47469H4.51426L4.83801 3.47824L5.16176 4.47469H6.20949L5.36184 5.09051ZM9.27258 9L8.42496 8.38418L7.57734 9L7.90113 8.00356L7.05348 7.38773H8.10121L8.42496 6.39129L8.74871 7.38773H9.79644L8.94879 8.00356L9.27258 9ZM8.94879 5.09051L9.27258 6.08695L8.42496 5.47113L7.57734 6.08695L7.90113 5.09051L7.05348 4.47469H8.10121L8.42496 3.47824L8.74871 4.47469H9.79644L8.94879 5.09051ZM8.94879 2.17746L9.27258 3.17391L8.42496 2.55809L7.57734 3.17391L7.90113 2.17746L7.05348 1.56164H8.10121L8.42496 0.565195L8.74871 1.56164H9.79644L8.94879 2.17746Z" fill="#0052B4"/>
</g>
<defs>
<clipPath id="clip0_5335_31360">
<rect width="20" height="20" fill="white" transform="translate(0.666016)"/>
</clipPath>
</defs>
</svg>
